<?xml version="1.0" encoding="utf-8"?>
<!-- Generator: Adobe Illustrator 23.0.3, SVG Export Plug-In . SVG Version: 6.00 Build 0)  -->
<svg version="1.1" id="Layer_1" xmlns="http://www.w3.org/2000/svg" xmlns:xlink="http://www.w3.org/1999/xlink" x="0px" y="0px"
	 viewBox="0 0 509.54 321.88" style="enable-background:new 0 0 509.54 321.88;" xml:space="preserve">
<style type="text/css">
	.st0{fill:none;stroke:#7BC143;stroke-width:2.25;stroke-linecap:round;stroke-linejoin:round;stroke-miterlimit:10;}
	.st1{fill:none;stroke:#DE3293;stroke-width:2.25;stroke-linecap:round;stroke-linejoin:round;stroke-miterlimit:10;}
	.st2{clip-path:url(#SVGID_2_);fill:#7BC143;}
	
		.st3{clip-path:url(#SVGID_2_);fill:none;stroke:#000000;stroke-width:0.75;stroke-linecap:round;stroke-linejoin:round;stroke-miterlimit:10;}
	.st4{clip-path:url(#SVGID_2_);fill:#DE3293;}
	.st5{clip-path:url(#SVGID_2_);fill:none;stroke:#000000;stroke-width:0.75;stroke-miterlimit:10;}
	.st6{font-family:'ArialMT';}
	.st7{font-size:15px;}
</style>
<line class="st0" x1="23.09" y1="89.13" x2="119.7" y2="89.13"/>
<line class="st1" x1="119.7" y1="115.09" x2="128.58" y2="115.09"/>
<line class="st1" x1="128.58" y1="142.05" x2="129.57" y2="142.05"/>
<line class="st1" x1="129.57" y1="179.34" x2="134.63" y2="179.34"/>
<line class="st0" x1="134.63" y1="228.96" x2="147.38" y2="228.96"/>
<line class="st0" x1="147.38" y1="278.27" x2="249.45" y2="278.27"/>
<line class="st0" x1="249.45" y1="296.13" x2="289.58" y2="296.13"/>
<line class="st0" x1="289.58" y1="304.45" x2="331.81" y2="304.45"/>
<line class="st0" x1="289.58" y1="287.81" x2="342.08" y2="287.81"/>
<line class="st0" x1="342.08" y1="293.35" x2="384.32" y2="293.35"/>
<line class="st0" x1="342.08" y1="282.26" x2="384.32" y2="282.26"/>
<line class="st1" x1="249.45" y1="260.42" x2="251.77" y2="260.42"/>
<line class="st0" x1="251.77" y1="271.17" x2="294" y2="271.17"/>
<line class="st1" x1="251.77" y1="249.67" x2="261.65" y2="249.67"/>
<line class="st0" x1="261.65" y1="260.07" x2="303.88" y2="260.07"/>
<line class="st0" x1="261.65" y1="239.27" x2="345.39" y2="239.27"/>
<line class="st0" x1="345.39" y1="248.98" x2="387.63" y2="248.98"/>
<line class="st0" x1="345.39" y1="229.57" x2="365.67" y2="229.57"/>
<line class="st0" x1="365.67" y1="237.89" x2="407.9" y2="237.89"/>
<line class="st0" x1="365.67" y1="221.25" x2="411.35" y2="221.25"/>
<line class="st0" x1="411.35" y1="226.79" x2="453.59" y2="226.79"/>
<line class="st0" x1="411.35" y1="215.7" x2="453.59" y2="215.7"/>
<line class="st0" x1="147.38" y1="179.65" x2="155.3" y2="179.65"/>
<line class="st0" x1="155.3" y1="196.29" x2="256.62" y2="196.29"/>
<line class="st0" x1="256.62" y1="204.61" x2="298.86" y2="204.61"/>
<line class="st0" x1="256.62" y1="187.97" x2="315.39" y2="187.97"/>
<line class="st0" x1="315.39" y1="193.51" x2="357.61" y2="193.51"/>
<line class="st0" x1="315.39" y1="182.42" x2="357.61" y2="182.42"/>
<line class="st0" x1="155.3" y1="163.01" x2="250.29" y2="163.01"/>
<line class="st0" x1="250.29" y1="171.33" x2="292.52" y2="171.33"/>
<line class="st0" x1="250.29" y1="154.69" x2="348.09" y2="154.69"/>
<line class="st0" x1="348.09" y1="160.23" x2="390.32" y2="160.23"/>
<line class="st0" x1="348.09" y1="149.14" x2="390.32" y2="149.14"/>
<line class="st0" x1="134.63" y1="129.73" x2="236.78" y2="129.73"/>
<line class="st0" x1="236.78" y1="138.05" x2="279.01" y2="138.05"/>
<line class="st0" x1="236.78" y1="121.41" x2="284.55" y2="121.41"/>
<line class="st0" x1="284.55" y1="126.95" x2="326.79" y2="126.95"/>
<line class="st0" x1="284.55" y1="115.86" x2="326.79" y2="115.86"/>
<line class="st0" x1="129.57" y1="104.77" x2="171.8" y2="104.77"/>
<line class="st0" x1="128.58" y1="88.13" x2="247.11" y2="88.13"/>
<line class="st0" x1="247.11" y1="93.67" x2="289.34" y2="93.67"/>
<line class="st0" x1="247.11" y1="82.58" x2="289.34" y2="82.58"/>
<line class="st0" x1="119.7" y1="63.17" x2="220.45" y2="63.17"/>
<line class="st0" x1="220.45" y1="71.49" x2="262.68" y2="71.49"/>
<line class="st0" x1="220.45" y1="54.85" x2="265.15" y2="54.85"/>
<line class="st0" x1="265.15" y1="60.39" x2="307.38" y2="60.39"/>
<line class="st0" x1="265.15" y1="49.3" x2="307.38" y2="49.3"/>
<line class="st0" x1="23.09" y1="32.66" x2="23.09" y2="32.66"/>
<line class="st0" x1="23.09" y1="38.21" x2="65.32" y2="38.21"/>
<line class="st0" x1="23.09" y1="27.11" x2="65.32" y2="27.11"/>
<line class="st0" x1="23.09" y1="89.13" x2="23.09" y2="32.66"/>
<line class="st0" x1="289.58" y1="304.45" x2="289.58" y2="287.81"/>
<line class="st0" x1="342.08" y1="293.35" x2="342.08" y2="282.26"/>
<line class="st1" x1="249.45" y1="278.27" x2="249.45" y2="260.42"/>
<line class="st0" x1="147.38" y1="278.27" x2="147.38" y2="179.65"/>
<line class="st0" x1="134.63" y1="228.96" x2="134.63" y2="129.73"/>
<line class="st0" x1="129.57" y1="142.05" x2="129.57" y2="104.77"/>
<line class="st0" x1="128.58" y1="115.09" x2="128.58" y2="88.13"/>
<line class="st0" x1="247.11" y1="93.67" x2="247.11" y2="82.58"/>
<line class="st0" x1="119.7" y1="89.13" x2="119.7" y2="63.17"/>
<line class="st0" x1="220.45" y1="71.49" x2="220.45" y2="54.85"/>
<line class="st0" x1="265.15" y1="60.39" x2="265.15" y2="49.3"/>
<line class="st0" x1="236.78" y1="138.05" x2="236.78" y2="121.41"/>
<line class="st0" x1="284.55" y1="126.95" x2="284.55" y2="115.86"/>
<line class="st0" x1="155.3" y1="196.29" x2="155.3" y2="163.01"/>
<line class="st0" x1="256.62" y1="204.61" x2="256.62" y2="187.97"/>
<line class="st0" x1="315.39" y1="193.51" x2="315.39" y2="182.42"/>
<line class="st0" x1="250.29" y1="171.33" x2="250.29" y2="154.69"/>
<line class="st0" x1="348.09" y1="160.23" x2="348.09" y2="149.14"/>
<line class="st1" x1="251.77" y1="260.42" x2="251.77" y2="249.67"/>
<line class="st0" x1="261.65" y1="260.07" x2="261.65" y2="239.27"/>
<line class="st0" x1="345.39" y1="248.98" x2="345.39" y2="229.57"/>
<line class="st0" x1="365.67" y1="237.89" x2="365.67" y2="221.24"/>
<line class="st0" x1="411.35" y1="226.79" x2="411.35" y2="215.7"/>
<line class="st0" x1="23.09" y1="38.21" x2="23.09" y2="27.11"/>
<line class="st0" x1="249.45" y1="296.13" x2="249.45" y2="278.27"/>
<line class="st1" x1="129.57" y1="179.34" x2="129.57" y2="142.05"/>
<line class="st1" x1="128.58" y1="142.05" x2="128.58" y2="115.09"/>
<line class="st1" x1="119.7" y1="115.09" x2="119.7" y2="89.13"/>
<line class="st0" x1="251.77" y1="271.17" x2="251.77" y2="260.42"/>
<g>
	<defs>
		<rect id="SVGID_1_" width="509.54" height="321.88"/>
	</defs>
	<clipPath id="SVGID_2_">
		<use xlink:href="#SVGID_1_"  style="overflow:visible;"/>
	</clipPath>
	<path class="st2" d="M16.22,60.89c0-3.78,3.09-6.87,6.87-6.87s6.87,3.09,6.87,6.87c0,3.78-3.09,6.88-6.87,6.88
		S16.22,64.67,16.22,60.89"/>
	<path class="st3" d="M16.22,60.89c0-3.78,3.09-6.87,6.87-6.87s6.87,3.09,6.87,6.87c0,3.78-3.09,6.88-6.87,6.88
		S16.22,64.67,16.22,60.89"/>
	<path class="st2" d="M282.71,296.13c0-3.78,3.09-6.88,6.87-6.88s6.87,3.1,6.87,6.88c0,3.78-3.09,6.87-6.87,6.87
		S282.71,299.91,282.71,296.13"/>
	<path class="st3" d="M282.71,296.13c0-3.78,3.09-6.88,6.87-6.88s6.87,3.1,6.87,6.88c0,3.78-3.09,6.87-6.87,6.87
		S282.71,299.91,282.71,296.13"/>
	<path class="st2" d="M335.21,287.81c0-3.78,3.09-6.88,6.87-6.88c3.78,0,6.88,3.1,6.88,6.88s-3.1,6.87-6.88,6.87
		C338.3,294.68,335.21,291.59,335.21,287.81"/>
	<path class="st3" d="M335.21,287.81c0-3.78,3.09-6.88,6.87-6.88c3.78,0,6.88,3.1,6.88,6.88s-3.1,6.87-6.88,6.87
		C338.3,294.68,335.21,291.59,335.21,287.81"/>
	<path class="st2" d="M242.58,278.27c0-3.78,3.09-6.87,6.87-6.87s6.88,3.09,6.88,6.87s-3.1,6.88-6.88,6.88
		S242.58,282.05,242.58,278.27"/>
	<path class="st3" d="M242.58,278.27c0-3.78,3.09-6.87,6.87-6.87s6.88,3.09,6.88,6.87s-3.1,6.88-6.88,6.88
		S242.58,282.05,242.58,278.27"/>
	<path class="st2" d="M140.51,228.96c0-3.78,3.09-6.87,6.87-6.87s6.88,3.09,6.88,6.87c0,3.78-3.1,6.87-6.88,6.87
		S140.51,232.74,140.51,228.96"/>
	<path class="st3" d="M140.51,228.96c0-3.78,3.09-6.87,6.87-6.87s6.88,3.09,6.88,6.87c0,3.78-3.1,6.87-6.88,6.87
		S140.51,232.74,140.51,228.96"/>
	<path class="st4" d="M127.76,179.34c0-3.78,3.09-6.87,6.87-6.87s6.87,3.09,6.87,6.87c0,3.78-3.09,6.88-6.87,6.88
		S127.76,183.12,127.76,179.34"/>
	<path class="st3" d="M127.76,179.34c0-3.78,3.09-6.87,6.87-6.87s6.87,3.09,6.87,6.87c0,3.78-3.09,6.88-6.87,6.88
		S127.76,183.12,127.76,179.34"/>
	<path class="st4" d="M122.69,142.05c0-3.77,3.1-6.87,6.88-6.87s6.87,3.1,6.87,6.87c0,3.78-3.09,6.88-6.87,6.88
		S122.69,145.83,122.69,142.05"/>
	<path class="st3" d="M122.69,142.05c0-3.77,3.1-6.87,6.88-6.87s6.87,3.1,6.87,6.87c0,3.78-3.09,6.88-6.87,6.88
		S122.69,145.83,122.69,142.05"/>
	<path class="st4" d="M121.71,115.09c0-3.78,3.09-6.87,6.87-6.87s6.88,3.09,6.88,6.87c0,3.78-3.1,6.87-6.88,6.87
		S121.71,118.87,121.71,115.09"/>
	<path class="st3" d="M121.71,115.09c0-3.78,3.09-6.87,6.87-6.87s6.88,3.09,6.88,6.87c0,3.78-3.1,6.87-6.88,6.87
		S121.71,118.87,121.71,115.09"/>
	<path class="st2" d="M240.23,88.13c0-3.78,3.1-6.88,6.88-6.88c3.77,0,6.87,3.1,6.87,6.88c0,3.78-3.1,6.87-6.87,6.87
		C243.33,95,240.23,91.91,240.23,88.13"/>
	<path class="st3" d="M240.23,88.13c0-3.78,3.1-6.88,6.88-6.88c3.77,0,6.87,3.1,6.87,6.88c0,3.78-3.1,6.87-6.87,6.87
		C243.33,95,240.23,91.91,240.23,88.13"/>
	<path class="st2" d="M112.82,89.13c0-3.78,3.1-6.87,6.88-6.87s6.87,3.09,6.87,6.87c0,3.78-3.09,6.87-6.87,6.87
		S112.82,92.91,112.82,89.13"/>
	<path class="st3" d="M112.82,89.13c0-3.78,3.1-6.87,6.88-6.87s6.87,3.09,6.87,6.87c0,3.78-3.09,6.87-6.87,6.87
		S112.82,92.91,112.82,89.13"/>
	<path class="st2" d="M213.57,63.17c0-3.78,3.1-6.88,6.88-6.88c3.77,0,6.87,3.1,6.87,6.88c0,3.78-3.1,6.87-6.87,6.87
		C216.67,70.04,213.57,66.95,213.57,63.17"/>
	<path class="st3" d="M213.57,63.17c0-3.78,3.1-6.88,6.88-6.88c3.77,0,6.87,3.1,6.87,6.88c0,3.78-3.1,6.87-6.87,6.87
		C216.67,70.04,213.57,66.95,213.57,63.17"/>
	<path class="st2" d="M258.27,54.85c0-3.78,3.1-6.88,6.88-6.88s6.87,3.1,6.87,6.88c0,3.78-3.09,6.87-6.87,6.87
		S258.27,58.63,258.27,54.85"/>
	<path class="st3" d="M258.27,54.85c0-3.78,3.1-6.88,6.88-6.88s6.87,3.1,6.87,6.88c0,3.78-3.09,6.87-6.87,6.87
		S258.27,58.63,258.27,54.85"/>
	<path class="st2" d="M229.9,129.73c0-3.78,3.1-6.88,6.88-6.88s6.87,3.1,6.87,6.88c0,3.78-3.09,6.87-6.87,6.87
		S229.9,133.51,229.9,129.73"/>
	<path class="st3" d="M229.9,129.73c0-3.78,3.1-6.88,6.88-6.88s6.87,3.1,6.87,6.88c0,3.78-3.09,6.87-6.87,6.87
		S229.9,133.51,229.9,129.73"/>
	<path class="st2" d="M277.68,121.41c0-3.78,3.09-6.88,6.87-6.88s6.87,3.1,6.87,6.88c0,3.78-3.09,6.87-6.87,6.87
		S277.68,125.19,277.68,121.41"/>
	<path class="st3" d="M277.68,121.41c0-3.78,3.09-6.88,6.87-6.88s6.87,3.1,6.87,6.88c0,3.78-3.09,6.87-6.87,6.87
		S277.68,125.19,277.68,121.41"/>
	<path class="st2" d="M148.43,179.65c0-3.78,3.09-6.88,6.87-6.88s6.87,3.1,6.87,6.88c0,3.78-3.09,6.87-6.87,6.87
		S148.43,183.43,148.43,179.65"/>
	<path class="st3" d="M148.43,179.65c0-3.78,3.09-6.88,6.87-6.88s6.87,3.1,6.87,6.88c0,3.78-3.09,6.87-6.87,6.87
		S148.43,183.43,148.43,179.65"/>
	<path class="st2" d="M249.75,196.29c0-3.78,3.09-6.88,6.87-6.88s6.87,3.1,6.87,6.88c0,3.78-3.09,6.87-6.87,6.87
		S249.75,200.07,249.75,196.29"/>
	<path class="st3" d="M249.75,196.29c0-3.78,3.09-6.88,6.87-6.88s6.87,3.1,6.87,6.88c0,3.78-3.09,6.87-6.87,6.87
		S249.75,200.07,249.75,196.29"/>
	<path class="st2" d="M308.52,187.97c0-3.78,3.09-6.88,6.87-6.88s6.87,3.1,6.87,6.88c0,3.78-3.09,6.87-6.87,6.87
		S308.52,191.74,308.52,187.97"/>
	<path class="st3" d="M308.52,187.97c0-3.78,3.09-6.88,6.87-6.88s6.87,3.1,6.87,6.88c0,3.78-3.09,6.87-6.87,6.87
		S308.52,191.74,308.52,187.97"/>
	<path class="st2" d="M243.42,163.01c0-3.78,3.09-6.88,6.87-6.88s6.87,3.1,6.87,6.88c0,3.78-3.09,6.87-6.87,6.87
		S243.42,166.79,243.42,163.01"/>
	<path class="st3" d="M243.42,163.01c0-3.78,3.09-6.88,6.87-6.88s6.87,3.1,6.87,6.88c0,3.78-3.09,6.87-6.87,6.87
		S243.42,166.79,243.42,163.01"/>
	<path class="st2" d="M341.22,154.69c0-3.78,3.09-6.88,6.87-6.88c3.78,0,6.87,3.1,6.87,6.88c0,3.78-3.09,6.87-6.87,6.87
		C344.31,161.56,341.22,158.47,341.22,154.69"/>
	<path class="st3" d="M341.22,154.69c0-3.78,3.09-6.88,6.87-6.88c3.78,0,6.87,3.1,6.87,6.88c0,3.78-3.09,6.87-6.87,6.87
		C344.31,161.56,341.22,158.47,341.22,154.69"/>
	<path class="st4" d="M244.89,260.42c0-3.78,3.1-6.87,6.88-6.87s6.87,3.09,6.87,6.87c0,3.78-3.09,6.87-6.87,6.87
		S244.89,264.2,244.89,260.42"/>
	<path class="st3" d="M244.89,260.42c0-3.78,3.1-6.87,6.88-6.87s6.87,3.09,6.87,6.87c0,3.78-3.09,6.87-6.87,6.87
		S244.89,264.2,244.89,260.42"/>
	<path class="st4" d="M254.78,249.67c0-3.78,3.09-6.87,6.87-6.87s6.87,3.09,6.87,6.87c0,3.78-3.09,6.88-6.87,6.88
		S254.78,253.45,254.78,249.67"/>
	<path class="st3" d="M254.78,249.67c0-3.78,3.09-6.87,6.87-6.87s6.87,3.09,6.87,6.87c0,3.78-3.09,6.88-6.87,6.88
		S254.78,253.45,254.78,249.67"/>
	<path class="st2" d="M338.52,239.27c0-3.78,3.09-6.87,6.87-6.87s6.87,3.09,6.87,6.87c0,3.78-3.09,6.88-6.87,6.88
		S338.52,243.05,338.52,239.27"/>
	<path class="st3" d="M338.52,239.27c0-3.78,3.09-6.87,6.87-6.87s6.87,3.09,6.87,6.87c0,3.78-3.09,6.88-6.87,6.88
		S338.52,243.05,338.52,239.27"/>
	<path class="st2" d="M358.8,229.57c0-3.78,3.1-6.88,6.87-6.88c3.78,0,6.88,3.1,6.88,6.88c0,3.78-3.1,6.87-6.88,6.87
		C361.9,236.44,358.8,233.35,358.8,229.57"/>
	<path class="st3" d="M358.8,229.57c0-3.78,3.1-6.88,6.87-6.88c3.78,0,6.88,3.1,6.88,6.88c0,3.78-3.1,6.87-6.88,6.87
		C361.9,236.44,358.8,233.35,358.8,229.57"/>
	<path class="st2" d="M404.48,221.25c0-3.78,3.09-6.88,6.87-6.88s6.87,3.1,6.87,6.88c0,3.78-3.09,6.87-6.87,6.87
		S404.48,225.03,404.48,221.25"/>
	<path class="st3" d="M404.48,221.25c0-3.78,3.09-6.88,6.87-6.88s6.87,3.1,6.87,6.88c0,3.78-3.09,6.87-6.87,6.87
		S404.48,225.03,404.48,221.25"/>
	<path class="st2" d="M16.22,32.66c0-3.78,3.09-6.87,6.87-6.87s6.87,3.09,6.87,6.87c0,3.78-3.09,6.87-6.87,6.87
		S16.22,36.44,16.22,32.66"/>
	<path class="st3" d="M16.22,32.66c0-3.78,3.09-6.87,6.87-6.87s6.87,3.09,6.87,6.87c0,3.78-3.09,6.87-6.87,6.87
		S16.22,36.44,16.22,32.66"/>
	<path class="st4" d="M322.48,50.8c0-6.34,5.18-11.52,11.52-11.52c6.34,0,11.54,5.18,11.54,11.52c0,6.34-5.2,11.52-11.54,11.52
		C327.67,62.32,322.48,57.14,322.48,50.8"/>
	<path class="st5" d="M322.48,50.8c0-6.34,5.18-11.52,11.52-11.52c6.34,0,11.54,5.18,11.54,11.52c0,6.34-5.2,11.52-11.54,11.52
		C327.67,62.32,322.48,57.14,322.48,50.8"/>
	<path class="st2" d="M322.48,18.78c0-6.34,5.2-11.52,11.54-11.52c6.34,0,11.52,5.18,11.52,11.52c0,6.34-5.18,11.52-11.52,11.52
		C327.68,30.3,322.48,25.12,322.48,18.78"/>
	<path class="st5" d="M322.48,18.78c0-6.34,5.2-11.52,11.54-11.52c6.34,0,11.52,5.18,11.52,11.52c0,6.34-5.18,11.52-11.52,11.52
		C327.68,30.3,322.48,25.12,322.48,18.78"/>
</g>
<text transform="matrix(1 0 0 1 353.4971 24.0182)" class="st6 st7">Anomaly zone absent</text>
<text transform="matrix(1 0 0 1 353.4971 55.9684)" class="st6 st7">Anomaly zone present</text>
</svg>
