<?xml version="1.0" encoding="utf-8"?>
<!-- Generator: Adobe Illustrator 23.0.3, SVG Export Plug-In . SVG Version: 6.00 Build 0)  -->
<svg version="1.1" id="Layer_1" xmlns="http://www.w3.org/2000/svg" xmlns:xlink="http://www.w3.org/1999/xlink" x="0px" y="0px"
	 viewBox="0 0 603.37 305.94" style="enable-background:new 0 0 603.37 305.94;" xml:space="preserve">
<style type="text/css">
	.st0{clip-path:url(#SVGID_2_);fill:none;stroke:#EBEBEB;stroke-width:1.07;stroke-linejoin:round;stroke-miterlimit:10;}
	.st1{clip-path:url(#SVGID_2_);fill:#DE3293;}
	
		.st2{clip-path:url(#SVGID_2_);fill:none;stroke:#000000;stroke-width:0.71;stroke-linecap:round;stroke-linejoin:round;stroke-miterlimit:10;}
	.st3{clip-path:url(#SVGID_2_);fill:#7BC143;}
	.st4{fill:#4D4D4D;}
	.st5{font-family:'ArialMT';}
	.st6{font-size:11px;}
	.st7{font-size:17px;}
	.st8{fill:none;stroke:#000000;stroke-width:0.71;stroke-linecap:round;stroke-linejoin:round;stroke-miterlimit:10;}
	.st9{font-family:'Helvetica';}
	.st10{font-size:9px;}
	.st11{fill:#7BC143;}
	.st12{fill:#DE3293;}
	.st13{font-size:14px;}
</style>
<g>
	<defs>
		<rect id="SVGID_1_" x="46.82" y="5.48" width="453.51" height="250.61"/>
	</defs>
	<clipPath id="SVGID_2_">
		<use xlink:href="#SVGID_1_"  style="overflow:visible;"/>
	</clipPath>
	<line class="st0" x1="46.82" y1="244.7" x2="500.32" y2="244.7"/>
	<line class="st0" x1="46.82" y1="187.74" x2="500.32" y2="187.74"/>
	<line class="st0" x1="46.82" y1="130.78" x2="500.32" y2="130.78"/>
	<line class="st0" x1="46.82" y1="73.83" x2="500.32" y2="73.83"/>
	<line class="st0" x1="46.82" y1="16.87" x2="500.32" y2="16.87"/>
	<line class="st0" x1="57.61" y1="256.09" x2="57.61" y2="5.48"/>
	<line class="st0" x1="75.61" y1="256.09" x2="75.61" y2="5.48"/>
	<line class="st0" x1="93.61" y1="256.09" x2="93.61" y2="5.48"/>
	<line class="st0" x1="111.6" y1="256.09" x2="111.6" y2="5.48"/>
	<line class="st0" x1="129.6" y1="256.09" x2="129.6" y2="5.48"/>
	<line class="st0" x1="147.6" y1="256.09" x2="147.6" y2="5.48"/>
	<line class="st0" x1="165.59" y1="256.09" x2="165.59" y2="5.48"/>
	<line class="st0" x1="183.59" y1="256.09" x2="183.59" y2="5.48"/>
	<line class="st0" x1="201.59" y1="256.09" x2="201.59" y2="5.48"/>
	<line class="st0" x1="219.58" y1="256.09" x2="219.58" y2="5.48"/>
	<line class="st0" x1="237.58" y1="256.09" x2="237.58" y2="5.48"/>
	<line class="st0" x1="255.57" y1="256.09" x2="255.57" y2="5.48"/>
	<line class="st0" x1="273.57" y1="256.09" x2="273.57" y2="5.48"/>
	<line class="st0" x1="291.57" y1="256.09" x2="291.57" y2="5.48"/>
	<line class="st0" x1="309.56" y1="256.09" x2="309.56" y2="5.48"/>
	<line class="st0" x1="327.56" y1="256.09" x2="327.56" y2="5.48"/>
	<line class="st0" x1="345.56" y1="256.09" x2="345.56" y2="5.48"/>
	<line class="st0" x1="363.55" y1="256.09" x2="363.55" y2="5.48"/>
	<line class="st0" x1="381.55" y1="256.09" x2="381.55" y2="5.48"/>
	<line class="st0" x1="399.55" y1="256.09" x2="399.55" y2="5.48"/>
	<line class="st0" x1="417.54" y1="256.09" x2="417.54" y2="5.48"/>
	<line class="st0" x1="435.54" y1="256.09" x2="435.54" y2="5.48"/>
	<line class="st0" x1="453.53" y1="256.09" x2="453.53" y2="5.48"/>
	<line class="st0" x1="471.53" y1="256.09" x2="471.53" y2="5.48"/>
	<line class="st0" x1="489.53" y1="256.09" x2="489.53" y2="5.48"/>
	<rect x="47.84" y="206.76" class="st1" width="19.54" height="19.54"/>
	<rect x="47.84" y="206.76" class="st2" width="19.54" height="19.54"/>
	<rect x="209.81" y="183.27" class="st1" width="19.54" height="19.54"/>
	<rect x="209.81" y="183.27" class="st2" width="19.54" height="19.54"/>
	<rect x="227.81" y="178.31" class="st1" width="19.54" height="19.54"/>
	<rect x="227.81" y="178.31" class="st2" width="19.54" height="19.54"/>
	<path class="st3" d="M244.55,170.31c0-6.06,4.96-11.02,11.02-11.02c6.07,0,11.03,4.96,11.03,11.02c0,6.07-4.96,11.03-11.03,11.03
		C249.51,181.34,244.55,176.38,244.55,170.31"/>
	<path class="st2" d="M244.55,170.31c0-6.06,4.96-11.02,11.02-11.02c6.07,0,11.03,4.96,11.03,11.02c0,6.07-4.96,11.03-11.03,11.03
		C249.51,181.34,244.55,176.38,244.55,170.31"/>
	<rect x="263.8" y="177.4" class="st1" width="19.54" height="19.54"/>
	<rect x="263.8" y="177.4" class="st2" width="19.54" height="19.54"/>
	<rect x="281.8" y="185.09" class="st1" width="19.54" height="19.54"/>
	<rect x="281.8" y="185.09" class="st2" width="19.54" height="19.54"/>
	<path class="st3" d="M298.54,157.41c0-6.06,4.96-11.02,11.02-11.02c6.07,0,11.03,4.96,11.03,11.02s-4.96,11.03-11.03,11.03
		C303.5,168.44,298.54,163.47,298.54,157.41"/>
	<path class="st2" d="M298.54,157.41c0-6.06,4.96-11.02,11.02-11.02c6.07,0,11.03,4.96,11.03,11.02s-4.96,11.03-11.03,11.03
		C303.5,168.44,298.54,163.47,298.54,157.41"/>
	<rect x="317.79" y="177.97" class="st1" width="19.54" height="19.54"/>
	<rect x="317.79" y="177.97" class="st2" width="19.54" height="19.54"/>
	<path class="st3" d="M334.53,149.78c0-6.06,4.96-11.02,11.03-11.02c6.06,0,11.02,4.96,11.02,11.02s-4.96,11.02-11.02,11.02
		C339.49,160.8,334.53,155.84,334.53,149.78"/>
	<path class="st2" d="M334.53,149.78c0-6.06,4.96-11.02,11.03-11.02c6.06,0,11.02,4.96,11.02,11.02s-4.96,11.02-11.02,11.02
		C339.49,160.8,334.53,155.84,334.53,149.78"/>
	<path class="st3" d="M352.53,154.39c0-6.06,4.96-11.02,11.02-11.02c6.07,0,11.03,4.96,11.03,11.02c0,6.07-4.96,11.03-11.03,11.03
		C357.49,165.42,352.53,160.46,352.53,154.39"/>
	<path class="st2" d="M352.53,154.39c0-6.06,4.96-11.02,11.02-11.02c6.07,0,11.03,4.96,11.03,11.02c0,6.07-4.96,11.03-11.03,11.03
		C357.49,165.42,352.53,160.46,352.53,154.39"/>
	<path class="st3" d="M370.52,154.76c0-6.06,4.97-11.02,11.03-11.02s11.02,4.96,11.02,11.02c0,6.07-4.96,11.03-11.02,11.03
		S370.52,160.83,370.52,154.76"/>
	<path class="st2" d="M370.52,154.76c0-6.06,4.97-11.02,11.03-11.02s11.02,4.96,11.02,11.02c0,6.07-4.96,11.03-11.02,11.03
		S370.52,160.83,370.52,154.76"/>
	<rect x="65.84" y="206.28" class="st1" width="19.54" height="19.54"/>
	<rect x="65.84" y="206.28" class="st2" width="19.54" height="19.54"/>
	<path class="st3" d="M388.52,149.78c0-6.06,4.96-11.02,11.03-11.02c6.06,0,11.02,4.96,11.02,11.02s-4.96,11.02-11.02,11.02
		C393.48,160.8,388.52,155.84,388.52,149.78"/>
	<path class="st2" d="M388.52,149.78c0-6.06,4.96-11.02,11.03-11.02c6.06,0,11.02,4.96,11.02,11.02s-4.96,11.02-11.02,11.02
		C393.48,160.8,388.52,155.84,388.52,149.78"/>
	<path class="st3" d="M388.52,149.78c0-6.06,4.96-11.02,11.03-11.02c6.06,0,11.02,4.96,11.02,11.02s-4.96,11.02-11.02,11.02
		C393.48,160.8,388.52,155.84,388.52,149.78"/>
	<path class="st2" d="M388.52,149.78c0-6.06,4.96-11.02,11.03-11.02c6.06,0,11.02,4.96,11.02,11.02s-4.96,11.02-11.02,11.02
		C393.48,160.8,388.52,155.84,388.52,149.78"/>
	<path class="st3" d="M406.52,149.78c0-6.06,4.96-11.02,11.02-11.02s11.03,4.96,11.03,11.02s-4.97,11.02-11.03,11.02
		S406.52,155.84,406.52,149.78"/>
	<path class="st2" d="M406.52,149.78c0-6.06,4.96-11.02,11.02-11.02s11.03,4.96,11.03,11.02s-4.97,11.02-11.03,11.02
		S406.52,155.84,406.52,149.78"/>
	<path class="st3" d="M406.52,149.78c0-6.06,4.96-11.02,11.02-11.02s11.03,4.96,11.03,11.02s-4.97,11.02-11.03,11.02
		S406.52,155.84,406.52,149.78"/>
	<path class="st2" d="M406.52,149.78c0-6.06,4.96-11.02,11.02-11.02s11.03,4.96,11.03,11.02s-4.97,11.02-11.03,11.02
		S406.52,155.84,406.52,149.78"/>
	<path class="st3" d="M424.51,149.78c0-6.06,4.96-11.02,11.03-11.02c6.06,0,11.02,4.96,11.02,11.02s-4.96,11.02-11.02,11.02
		C429.47,160.8,424.51,155.84,424.51,149.78"/>
	<path class="st2" d="M424.51,149.78c0-6.06,4.96-11.02,11.03-11.02c6.06,0,11.02,4.96,11.02,11.02s-4.96,11.02-11.02,11.02
		C429.47,160.8,424.51,155.84,424.51,149.78"/>
	<path class="st3" d="M424.51,149.78c0-6.06,4.96-11.02,11.03-11.02c6.06,0,11.02,4.96,11.02,11.02s-4.96,11.02-11.02,11.02
		C429.47,160.8,424.51,155.84,424.51,149.78"/>
	<path class="st2" d="M424.51,149.78c0-6.06,4.96-11.02,11.03-11.02c6.06,0,11.02,4.96,11.02,11.02s-4.96,11.02-11.02,11.02
		C429.47,160.8,424.51,155.84,424.51,149.78"/>
	<path class="st3" d="M442.51,153.17c0-6.06,4.96-11.03,11.02-11.03c6.07,0,11.03,4.97,11.03,11.03s-4.96,11.02-11.03,11.02
		C447.47,164.19,442.51,159.23,442.51,153.17"/>
	<path class="st2" d="M442.51,153.17c0-6.06,4.96-11.03,11.02-11.03c6.07,0,11.03,4.97,11.03,11.03s-4.96,11.02-11.03,11.02
		C447.47,164.19,442.51,159.23,442.51,153.17"/>
	<path class="st3" d="M460.51,153.17c0-6.06,4.96-11.03,11.02-11.03s11.02,4.97,11.02,11.03s-4.96,11.02-11.02,11.02
		S460.51,159.23,460.51,153.17"/>
	<path class="st2" d="M460.51,153.17c0-6.06,4.96-11.03,11.02-11.03s11.02,4.97,11.02,11.03s-4.96,11.02-11.02,11.02
		S460.51,159.23,460.51,153.17"/>
	<path class="st3" d="M478.5,146.5c0-6.06,4.96-11.02,11.03-11.02c6.06,0,11.02,4.96,11.02,11.02c0,6.07-4.96,11.03-11.02,11.03
		C483.46,157.53,478.5,152.57,478.5,146.5"/>
	<path class="st2" d="M478.5,146.5c0-6.06,4.96-11.02,11.03-11.02c6.06,0,11.02,4.96,11.02,11.02c0,6.07-4.96,11.03-11.02,11.03
		C483.46,157.53,478.5,152.57,478.5,146.5"/>
	<rect x="83.84" y="204.54" class="st1" width="19.54" height="19.54"/>
	<rect x="83.84" y="204.54" class="st2" width="19.54" height="19.54"/>
	<rect x="101.83" y="202.58" class="st1" width="19.54" height="19.54"/>
	<rect x="101.83" y="202.58" class="st2" width="19.54" height="19.54"/>
	<rect x="119.83" y="199.24" class="st1" width="19.54" height="19.54"/>
	<rect x="119.83" y="199.24" class="st2" width="19.54" height="19.54"/>
	<rect x="137.83" y="199.59" class="st1" width="19.54" height="19.54"/>
	<rect x="137.83" y="199.59" class="st2" width="19.54" height="19.54"/>
	<rect x="155.82" y="195.49" class="st1" width="19.54" height="19.54"/>
	<rect x="155.82" y="195.49" class="st2" width="19.54" height="19.54"/>
	<rect x="173.82" y="192.12" class="st1" width="19.54" height="19.54"/>
	<rect x="173.82" y="192.12" class="st2" width="19.54" height="19.54"/>
	<path class="st3" d="M190.56,176.04c0-6.07,4.96-11.03,11.03-11.03c6.06,0,11.02,4.96,11.02,11.03c0,6.06-4.96,11.02-11.02,11.02
		C195.52,187.06,190.56,182.1,190.56,176.04"/>
	<path class="st2" d="M190.56,176.04c0-6.07,4.96-11.03,11.03-11.03c6.06,0,11.02,4.96,11.02,11.03c0,6.06-4.96,11.02-11.02,11.02
		C195.52,187.06,190.56,182.1,190.56,176.04"/>
</g>
<text transform="matrix(1 0 0 1 36.8772 247.9297)" class="st4 st5 st6">0</text>
<text transform="matrix(1 0 0 1 31.8772 190.9697)" class="st4 st5 st6">20</text>
<text transform="matrix(1 0 0 1 31.8772 134.02)" class="st4 st5 st6">40</text>
<text transform="matrix(1 0 0 1 31.8772 77.0601)" class="st4 st5 st6">60</text>
<text transform="matrix(1 0 0 1 31.8772 20.1001)" class="st4 st5 st6">80</text>
<text transform="matrix(0.6157 -0.788 0.788 0.6157 45.3325 277.7436)" class="st4 st5 st6">100</text>
<text transform="matrix(0.6157 -0.788 0.788 0.6157 63.3224 277.7433)" class="st4 st5 st6">200</text>
<text transform="matrix(0.6157 -0.788 0.788 0.6157 81.3223 277.7437)" class="st4 st5 st6">300</text>
<text transform="matrix(0.6157 -0.788 0.788 0.6157 99.3224 277.744)" class="st4 st5 st6">400</text>
<text transform="matrix(0.6157 -0.788 0.788 0.6157 117.3126 277.7433)" class="st4 st5 st6">500</text>
<text transform="matrix(0.6157 -0.788 0.788 0.6157 135.3127 277.7437)" class="st4 st5 st6">600</text>
<text transform="matrix(0.6157 -0.788 0.788 0.6157 153.3126 277.7441)" class="st4 st5 st6">700</text>
<text transform="matrix(0.6157 -0.788 0.788 0.6157 171.3028 277.7433)" class="st4 st5 st6">800</text>
<text transform="matrix(0.6157 -0.788 0.788 0.6157 189.3029 277.7437)" class="st4 st5 st6">900</text>
<text transform="matrix(0.6157 -0.788 0.788 0.6157 205.7544 279.7154)" class="st4 st5 st6">1000</text>
<text transform="matrix(0.6157 -0.788 0.788 0.6157 223.7545 279.7158)" class="st4 st5 st6">1100</text>
<text transform="matrix(0.6157 -0.788 0.788 0.6157 241.7544 279.7161)" class="st4 st5 st6">1200</text>
<text transform="matrix(0.6157 -0.788 0.788 0.6157 259.7446 279.7154)" class="st4 st5 st6">1300</text>
<text transform="matrix(0.6157 -0.788 0.788 0.6157 277.7447 279.7158)" class="st4 st5 st6">1400</text>
<text transform="matrix(0.6157 -0.788 0.788 0.6157 295.7448 279.7162)" class="st4 st5 st6">1500</text>
<text transform="matrix(0.6157 -0.788 0.788 0.6157 313.7345 279.7158)" class="st4 st5 st6">1600</text>
<text transform="matrix(0.6157 -0.788 0.788 0.6157 331.7343 279.7162)" class="st4 st5 st6">1700</text>
<text transform="matrix(0.6157 -0.788 0.788 0.6157 349.7245 279.7155)" class="st4 st5 st6">1800</text>
<text transform="matrix(0.6157 -0.788 0.788 0.6157 367.7247 279.7159)" class="st4 st5 st6">1900</text>
<text transform="matrix(0.6157 -0.788 0.788 0.6157 385.7245 279.7162)" class="st4 st5 st6">2000</text>
<text transform="matrix(0.6157 -0.788 0.788 0.6157 403.715 279.7155)" class="st4 st5 st6">2100</text>
<text transform="matrix(0.6157 -0.788 0.788 0.6157 421.7149 279.7159)" class="st4 st5 st6">2200</text>
<text transform="matrix(0.6157 -0.788 0.788 0.6157 439.715 279.7163)" class="st4 st5 st6">2300</text>
<text transform="matrix(0.6157 -0.788 0.788 0.6157 457.7041 279.7154)" class="st4 st5 st6">2400</text>
<text transform="matrix(0.6157 -0.788 0.788 0.6157 475.7042 279.7157)" class="st4 st5 st6">2500</text>
<text transform="matrix(1 0 0 1 279.5912 300.0996)" class="st5 st7">Filter</text>
<text transform="matrix(-6.123234e-17 -1 1 -6.123234e-17 16.9436 223.5088)" class="st5 st7">Gene concordance factor</text>
<rect x="521.17" y="67.54" class="st8" width="19.54" height="19.54"/>
<path class="st8" d="M519.91,105.65c0-6.06,4.96-11.02,11.03-11.02c6.06,0,11.02,4.96,11.02,11.02c0,6.07-4.96,11.03-11.02,11.03
	C524.87,116.68,519.91,111.72,519.91,105.65"/>
<text transform="matrix(1 0 0 1 550.5872 80.54)"><tspan x="0" y="0" class="st9 st10">F</tspan><tspan x="4.79" y="0" class="st9 st10">ALSE</tspan></text>
<text transform="matrix(1 0 0 1 550.5872 108.8799)"><tspan x="0" y="0" class="st9 st10">T</tspan><tspan x="5.5" y="0" class="st9 st10">R</tspan><tspan x="11.64" y="0" class="st9 st10">UE</tspan></text>
<path class="st11" d="M519.91,217.44c0-6.07,4.96-11.03,11.03-11.03c6.06,0,11.02,4.96,11.02,11.03c0,6.06-4.96,11.02-11.02,11.02
	C524.87,228.46,519.91,223.5,519.91,217.44"/>
<path class="st8" d="M519.91,217.44c0-6.07,4.96-11.03,11.03-11.03c6.06,0,11.02,4.96,11.02,11.03c0,6.06-4.96,11.02-11.02,11.02
	C524.87,228.46,519.91,223.5,519.91,217.44"/>
<path class="st12" d="M519.91,188.15c0-6.06,4.96-11.02,11.03-11.02c6.06,0,11.02,4.96,11.02,11.02c0,6.07-4.96,11.03-11.02,11.03
	C524.87,199.18,519.91,194.22,519.91,188.15"/>
<path class="st8" d="M519.91,188.15c0-6.06,4.96-11.02,11.03-11.02c6.06,0,11.02,4.96,11.02,11.02c0,6.07-4.96,11.03-11.02,11.03
	C524.87,199.18,519.91,194.22,519.91,188.15"/>
<text transform="matrix(1 0 0 1 510.9744 54.6218)" class="st5 st13">Monophyletic</text>
<text transform="matrix(1 0 0 1 550.5874 223.5085)" class="st5 st13">Absent</text>
<text transform="matrix(1 0 0 1 550.5659 194.5532)" class="st5 st13">Present</text>
<text transform="matrix(1 0 0 1 507.0952 166.1692)" class="st5 st13">Anomaly Zone</text>
</svg>
