<?xml version="1.0" encoding="utf-8"?>
<!-- Generator: Adobe Illustrator 23.0.3, SVG Export Plug-In . SVG Version: 6.00 Build 0)  -->
<svg version="1.1" id="Layer_1" xmlns="http://www.w3.org/2000/svg" xmlns:xlink="http://www.w3.org/1999/xlink" x="0px" y="0px"
	 viewBox="0 0 536.9 328.18" style="enable-background:new 0 0 536.9 328.18;" xml:space="preserve">
<style type="text/css">
	.st0{fill:none;stroke:#EBEBEB;stroke-width:1.07;stroke-linejoin:round;stroke-miterlimit:10;}
	.st1{fill:#F8766D;}
	.st2{font-family:'MyriadPro-Regular';}
	.st3{font-size:9.85px;}
	.st4{fill:none;stroke:#F8766D;stroke-width:7;stroke-linecap:round;stroke-linejoin:round;stroke-miterlimit:10;}
	.st5{fill:#4D4D4D;}
	.st6{font-family:'ArialMT';}
	.st7{font-size:10px;}
	.st8{font-size:15px;}
</style>
<g>
	<line class="st0" x1="52.03" y1="261.73" x2="514.39" y2="261.73"/>
	<line class="st0" x1="52.03" y1="198.44" x2="514.39" y2="198.44"/>
	<line class="st0" x1="52.03" y1="135.16" x2="514.39" y2="135.16"/>
	<line class="st0" x1="52.03" y1="71.87" x2="514.39" y2="71.87"/>
	<line class="st0" x1="63.04" y1="273.12" x2="63.04" y2="7.51"/>
	<line class="st0" x1="81.38" y1="273.12" x2="81.38" y2="7.51"/>
	<line class="st0" x1="99.73" y1="273.12" x2="99.73" y2="7.51"/>
	<line class="st0" x1="118.08" y1="273.12" x2="118.08" y2="7.51"/>
	<line class="st0" x1="136.43" y1="273.12" x2="136.43" y2="7.51"/>
	<line class="st0" x1="154.77" y1="273.12" x2="154.77" y2="7.51"/>
	<line class="st0" x1="173.12" y1="273.12" x2="173.12" y2="7.51"/>
	<line class="st0" x1="191.47" y1="273.12" x2="191.47" y2="7.51"/>
	<line class="st0" x1="209.82" y1="273.12" x2="209.82" y2="7.51"/>
	<line class="st0" x1="228.16" y1="273.12" x2="228.16" y2="7.51"/>
	<line class="st0" x1="246.51" y1="273.12" x2="246.51" y2="7.51"/>
	<line class="st0" x1="264.86" y1="273.12" x2="264.86" y2="7.51"/>
	<line class="st0" x1="283.21" y1="273.12" x2="283.21" y2="7.51"/>
	<line class="st0" x1="301.55" y1="273.12" x2="301.55" y2="7.51"/>
	<line class="st0" x1="319.9" y1="273.12" x2="319.9" y2="7.51"/>
	<line class="st0" x1="338.25" y1="273.12" x2="338.25" y2="7.51"/>
	<line class="st0" x1="356.6" y1="273.12" x2="356.6" y2="7.51"/>
	<line class="st0" x1="374.95" y1="273.12" x2="374.95" y2="7.51"/>
	<line class="st0" x1="393.29" y1="273.12" x2="393.29" y2="7.51"/>
	<line class="st0" x1="411.64" y1="273.12" x2="411.64" y2="7.51"/>
	<line class="st0" x1="429.99" y1="273.12" x2="429.99" y2="7.51"/>
	<line class="st0" x1="448.34" y1="273.12" x2="448.34" y2="7.51"/>
	<line class="st0" x1="466.68" y1="273.12" x2="466.68" y2="7.51"/>
	<line class="st0" x1="485.03" y1="273.12" x2="485.03" y2="7.51"/>
	<line class="st0" x1="503.38" y1="273.12" x2="503.38" y2="7.51"/>
	<text transform="matrix(1 0 0 1 59.1397 105.5498)" class="st1 st2 st3">●</text>
	<text transform="matrix(1 0 0 1 59.1397 105.5498)" class="st4 st2 st3">●</text>
	<text transform="matrix(1 0 0 1 77.48 104.6299)" class="st1 st2 st3">●</text>
	<text transform="matrix(1 0 0 1 77.48 104.6299)" class="st4 st2 st3">●</text>
	<text transform="matrix(1 0 0 1 95.8296 101.6997)" class="st1 st2 st3">●</text>
	<text transform="matrix(1 0 0 1 95.8296 101.6997)" class="st4 st2 st3">●</text>
	<text transform="matrix(1 0 0 1 114.1797 98.0395)" class="st1 st2 st3">●</text>
	<text transform="matrix(1 0 0 1 114.1797 98.0395)" class="st4 st2 st3">●</text>
	<text transform="matrix(1 0 0 1 132.5298 93.9897)" class="st1 st2 st3">●</text>
	<text transform="matrix(1 0 0 1 132.5298 93.9897)" class="st4 st2 st3">●</text>
	<text transform="matrix(1 0 0 1 150.8696 91.1196)" class="st1 st2 st3">●</text>
	<text transform="matrix(1 0 0 1 150.8696 91.1196)" class="st4 st2 st3">●</text>
	<text transform="matrix(1 0 0 1 169.2197 87.4096)" class="st1 st2 st3">●</text>
	<text transform="matrix(1 0 0 1 169.2197 87.4096)" class="st4 st2 st3">●</text>
	<text transform="matrix(1 0 0 1 187.5698 83.0097)" class="st1 st2 st3">●</text>
	<text transform="matrix(1 0 0 1 187.5698 83.0097)" class="st4 st2 st3">●</text>
	<text transform="matrix(1 0 0 1 205.9199 75.5796)" class="st1 st2 st3">●</text>
	<text transform="matrix(1 0 0 1 205.9199 75.5796)" class="st4 st2 st3">●</text>
	<text transform="matrix(1 0 0 1 224.2598 70.2798)" class="st1 st2 st3">●</text>
	<text transform="matrix(1 0 0 1 224.2598 70.2798)" class="st4 st2 st3">●</text>
	<text transform="matrix(1 0 0 1 242.6099 66.6596)" class="st1 st2 st3">●</text>
	<text transform="matrix(1 0 0 1 242.6099 66.6596)" class="st4 st2 st3">●</text>
	<text transform="matrix(1 0 0 1 260.96 65.4096)" class="st1 st2 st3">●</text>
	<text transform="matrix(1 0 0 1 260.96 65.4096)" class="st4 st2 st3">●</text>
	<text transform="matrix(1 0 0 1 279.3096 65.3999)" class="st1 st2 st3">●</text>
	<text transform="matrix(1 0 0 1 279.3096 65.3999)" class="st4 st2 st3">●</text>
	<text transform="matrix(1 0 0 1 297.6499 64.5097)" class="st1 st2 st3">●</text>
	<text transform="matrix(1 0 0 1 297.6499 64.5097)" class="st4 st2 st3">●</text>
	<text transform="matrix(1 0 0 1 316 57.9599)" class="st1 st2 st3">●</text>
	<text transform="matrix(1 0 0 1 316 57.9599)" class="st4 st2 st3">●</text>
	<text transform="matrix(1 0 0 1 334.3496 56.3198)" class="st1 st2 st3">●</text>
	<text transform="matrix(1 0 0 1 334.3496 56.3198)" class="st4 st2 st3">●</text>
	<text transform="matrix(1 0 0 1 352.7002 53.8598)" class="st1 st2 st3">●</text>
	<text transform="matrix(1 0 0 1 352.7002 53.8598)" class="st4 st2 st3">●</text>
	<text transform="matrix(1 0 0 1 371.0498 53.0996)" class="st1 st2 st3">●</text>
	<text transform="matrix(1 0 0 1 371.0498 53.0996)" class="st4 st2 st3">●</text>
	<text transform="matrix(1 0 0 1 389.3897 53.5)" class="st1 st2 st3">●</text>
	<text transform="matrix(1 0 0 1 389.3897 53.5)" class="st4 st2 st3">●</text>
	<text transform="matrix(1 0 0 1 407.7403 51.7998)" class="st1 st2 st3">●</text>
	<text transform="matrix(1 0 0 1 407.7403 51.7998)" class="st4 st2 st3">●</text>
	<text transform="matrix(1 0 0 1 426.0899 51.7998)" class="st1 st2 st3">●</text>
	<text transform="matrix(1 0 0 1 426.0899 51.7998)" class="st4 st2 st3">●</text>
	<text transform="matrix(1 0 0 1 444.4395 51.6997)" class="st1 st2 st3">●</text>
	<text transform="matrix(1 0 0 1 444.4395 51.6997)" class="st4 st2 st3">●</text>
	<text transform="matrix(1 0 0 1 462.7803 50.0097)" class="st1 st2 st3">●</text>
	<text transform="matrix(1 0 0 1 462.7803 50.0097)" class="st4 st2 st3">●</text>
	<text transform="matrix(1 0 0 1 481.1299 50.0097)" class="st1 st2 st3">●</text>
	<text transform="matrix(1 0 0 1 481.1299 50.0097)" class="st4 st2 st3">●</text>
	<text transform="matrix(1 0 0 1 499.4795 49.9897)" class="st1 st2 st3">●</text>
	<text transform="matrix(1 0 0 1 499.4795 49.9897)" class="st4 st2 st3">●</text>
</g>
<text transform="matrix(1 0 0 1 41.0899 264.9594)" class="st5 st6 st7">0</text>
<text transform="matrix(1 0 0 1 36.6406 201.6694)" class="st5 st6 st7">25</text>
<text transform="matrix(1 0 0 1 36.6406 138.3896)" class="st5 st6 st7">50</text>
<text transform="matrix(1 0 0 1 36.6406 75.0996)" class="st5 st6 st7">75</text>
<text transform="matrix(0.6157 -0.788 0.788 0.6157 56.7552 291.7729)" class="st5 st6 st7">100</text>
<text transform="matrix(0.6157 -0.788 0.788 0.6157 75.1054 291.7738)" class="st5 st6 st7">200</text>
<text transform="matrix(0.6157 -0.788 0.788 0.6157 93.4451 291.773)" class="st5 st6 st7">300</text>
<text transform="matrix(0.6157 -0.788 0.788 0.6157 111.7953 291.7739)" class="st5 st6 st7">400</text>
<text transform="matrix(0.6157 -0.788 0.788 0.6157 130.1452 291.7737)" class="st5 st6 st7">500</text>
<text transform="matrix(0.6157 -0.788 0.788 0.6157 148.4954 291.7736)" class="st5 st6 st7">600</text>
<text transform="matrix(0.6157 -0.788 0.788 0.6157 166.8451 291.7739)" class="st5 st6 st7">700</text>
<text transform="matrix(0.6157 -0.788 0.788 0.6157 185.1853 291.7737)" class="st5 st6 st7">800</text>
<text transform="matrix(0.6157 -0.788 0.788 0.6157 203.535 291.773)" class="st5 st6 st7">900</text>
<text transform="matrix(0.6157 -0.788 0.788 0.6157 220.347 293.7458)" class="st5 st6 st7">1000</text>
<text transform="matrix(0.6157 -0.788 0.788 0.6157 238.6872 293.7456)" class="st5 st6 st7">1100</text>
<text transform="matrix(0.6157 -0.788 0.788 0.6157 257.0369 293.7458)" class="st5 st6 st7">1200</text>
<text transform="matrix(0.6157 -0.788 0.788 0.6157 275.3871 293.7457)" class="st5 st6 st7">1300</text>
<text transform="matrix(0.6157 -0.788 0.788 0.6157 293.7372 293.7456)" class="st5 st6 st7">1400</text>
<text transform="matrix(0.6157 -0.788 0.788 0.6157 312.077 293.7458)" class="st5 st6 st7">1500</text>
<text transform="matrix(0.6157 -0.788 0.788 0.6157 330.4275 293.7453)" class="st5 st6 st7">1600</text>
<text transform="matrix(0.6157 -0.788 0.788 0.6157 348.7771 293.7455)" class="st5 st6 st7">1700</text>
<text transform="matrix(0.6157 -0.788 0.788 0.6157 367.1267 293.7458)" class="st5 st6 st7">1800</text>
<text transform="matrix(0.6157 -0.788 0.788 0.6157 385.4675 293.7452)" class="st5 st6 st7">1900</text>
<text transform="matrix(0.6157 -0.788 0.788 0.6157 403.8172 293.7455)" class="st5 st6 st7">2000</text>
<text transform="matrix(0.6157 -0.788 0.788 0.6157 422.1668 293.7458)" class="st5 st6 st7">2100</text>
<text transform="matrix(0.6157 -0.788 0.788 0.6157 440.5173 293.7452)" class="st5 st6 st7">2200</text>
<text transform="matrix(0.6157 -0.788 0.788 0.6157 458.8669 293.7455)" class="st5 st6 st7">2300</text>
<text transform="matrix(0.6157 -0.788 0.788 0.6157 477.2069 293.7457)" class="st5 st6 st7">2400</text>
<text transform="matrix(0.6157 -0.788 0.788 0.6157 495.5574 293.7452)" class="st5 st6 st7">2500</text>
<text transform="matrix(1 0 0 1 260.96 321.8899)" class="st6 st8">Filter</text>
<text transform="matrix(-6.123234e-17 -1 1 -6.123234e-17 17.5949 213.7924)" class="st6 st8">Gene concordance factor</text>
<text transform="matrix(1 0 0 1 36.6406 14.5098)" class="st5 st6 st7">80</text>
<path class="st0" d="M487.39,71.16"/>
<line class="st0" x1="51.03" y1="11.87" x2="513.39" y2="11.87"/>
</svg>
