<?xml version="1.0" encoding="utf-8"?>
<!-- Generator: Adobe Illustrator 23.0.3, SVG Export Plug-In . SVG Version: 6.00 Build 0)  -->
<svg version="1.1" id="Layer_1" xmlns="http://www.w3.org/2000/svg" xmlns:xlink="http://www.w3.org/1999/xlink" x="0px" y="0px"
	 viewBox="0 0 526.48 245.65" style="enable-background:new 0 0 526.48 245.65;" xml:space="preserve">
<style type="text/css">
	.st0{fill:none;stroke:#DE3293;stroke-width:2.25;stroke-linecap:round;stroke-linejoin:round;stroke-miterlimit:10;}
	.st1{fill:none;stroke:#7BC143;stroke-width:2.25;stroke-linecap:round;stroke-linejoin:round;stroke-miterlimit:10;}
	.st2{fill:#7BC143;}
	.st3{fill:none;stroke:#000000;stroke-width:0.75;stroke-linecap:round;stroke-linejoin:round;stroke-miterlimit:10;}
	.st4{fill:#DE3293;}
	.st5{font-family:'Krungthep';}
	.st6{font-size:45px;}
	.st7{letter-spacing:24;}
</style>
<line class="st0" x1="85.54" y1="102.61" x2="94.42" y2="102.61"/>
<line class="st0" x1="94.42" y1="129.57" x2="95.41" y2="129.57"/>
<line class="st0" x1="95.41" y1="166.86" x2="100.47" y2="166.86"/>
<line class="st1" x1="100.47" y1="206.48" x2="113.22" y2="206.48"/>
<line class="st1" x1="113.22" y1="206.48" x2="215.29" y2="206.48"/>
<line class="st1" x1="215.29" y1="223.65" x2="255.42" y2="223.65"/>
<line class="st1" x1="255.42" y1="231.97" x2="297.65" y2="231.97"/>
<line class="st1" x1="255.42" y1="215.33" x2="307.92" y2="215.33"/>
<line class="st1" x1="307.92" y1="220.87" x2="350.16" y2="220.87"/>
<line class="st1" x1="307.92" y1="209.78" x2="350.16" y2="209.78"/>
<line class="st0" x1="215.29" y1="187.94" x2="217.61" y2="187.94"/>
<line class="st1" x1="217.61" y1="198.69" x2="259.84" y2="198.69"/>
<line class="st0" x1="217.61" y1="177.19" x2="227.49" y2="177.19"/>
<line class="st1" x1="227.49" y1="187.59" x2="269.72" y2="187.59"/>
<line class="st1" x1="227.49" y1="166.79" x2="311.23" y2="166.79"/>
<line class="st1" x1="311.23" y1="176.5" x2="353.47" y2="176.5"/>
<line class="st1" x1="311.23" y1="157.09" x2="331.51" y2="157.09"/>
<line class="st1" x1="331.51" y1="165.41" x2="373.74" y2="165.41"/>
<line class="st1" x1="331.51" y1="148.77" x2="377.19" y2="148.77"/>
<line class="st1" x1="377.19" y1="154.31" x2="419.43" y2="154.31"/>
<line class="st1" x1="377.19" y1="143.22" x2="419.43" y2="143.22"/>
<line class="st1" x1="100.47" y1="117.25" x2="202.62" y2="117.25"/>
<line class="st1" x1="202.62" y1="125.57" x2="244.85" y2="125.57"/>
<line class="st1" x1="202.62" y1="108.93" x2="250.39" y2="108.93"/>
<line class="st1" x1="250.39" y1="114.47" x2="292.63" y2="114.47"/>
<line class="st1" x1="250.39" y1="103.38" x2="292.63" y2="103.38"/>
<line class="st1" x1="95.41" y1="92.29" x2="137.64" y2="92.29"/>
<line class="st1" x1="94.42" y1="75.65" x2="212.95" y2="75.65"/>
<line class="st1" x1="212.95" y1="81.19" x2="255.18" y2="81.19"/>
<line class="st1" x1="212.95" y1="70.1" x2="255.18" y2="70.1"/>
<line class="st1" x1="85.54" y1="50.69" x2="186.29" y2="50.69"/>
<line class="st1" x1="186.29" y1="59.01" x2="228.52" y2="59.01"/>
<line class="st1" x1="186.29" y1="42.37" x2="230.99" y2="42.37"/>
<line class="st1" x1="230.99" y1="47.91" x2="273.22" y2="47.91"/>
<line class="st1" x1="230.99" y1="36.82" x2="273.22" y2="36.82"/>
<line class="st1" x1="255.42" y1="231.97" x2="255.42" y2="215.33"/>
<line class="st1" x1="307.92" y1="220.87" x2="307.92" y2="209.78"/>
<line class="st0" x1="215.29" y1="205.79" x2="215.29" y2="187.94"/>
<line class="st1" x1="100.47" y1="206.48" x2="100.47" y2="117.25"/>
<line class="st1" x1="95.41" y1="129.57" x2="95.41" y2="92.29"/>
<line class="st1" x1="94.42" y1="102.61" x2="94.42" y2="75.65"/>
<line class="st1" x1="212.95" y1="81.19" x2="212.95" y2="70.1"/>
<line class="st1" x1="85.54" y1="76.65" x2="85.54" y2="50.69"/>
<line class="st1" x1="186.29" y1="59.01" x2="186.29" y2="42.37"/>
<line class="st1" x1="230.99" y1="47.91" x2="230.99" y2="36.82"/>
<line class="st1" x1="202.62" y1="125.57" x2="202.62" y2="108.93"/>
<line class="st1" x1="250.39" y1="114.47" x2="250.39" y2="103.38"/>
<line class="st0" x1="217.61" y1="187.94" x2="217.61" y2="177.19"/>
<line class="st1" x1="227.49" y1="187.59" x2="227.49" y2="166.79"/>
<line class="st1" x1="311.23" y1="176.5" x2="311.23" y2="157.09"/>
<line class="st1" x1="331.51" y1="165.41" x2="331.51" y2="148.76"/>
<line class="st1" x1="377.19" y1="154.31" x2="377.19" y2="143.22"/>
<line class="st1" x1="215.29" y1="223.65" x2="215.29" y2="205.79"/>
<line class="st0" x1="95.41" y1="166.86" x2="95.41" y2="129.57"/>
<line class="st0" x1="94.42" y1="129.57" x2="94.42" y2="102.61"/>
<line class="st0" x1="85.54" y1="102.61" x2="85.54" y2="76.65"/>
<line class="st1" x1="217.61" y1="198.69" x2="217.61" y2="187.94"/>
<g>
	<g>
		<path class="st2" d="M248.55,223.65c0-3.78,3.09-6.88,6.87-6.88s6.87,3.1,6.87,6.88s-3.09,6.87-6.87,6.87
			S248.55,227.43,248.55,223.65"/>
	</g>
	<g>
		<path class="st3" d="M248.55,223.65c0-3.78,3.09-6.88,6.87-6.88s6.87,3.1,6.87,6.88s-3.09,6.87-6.87,6.87
			S248.55,227.43,248.55,223.65"/>
	</g>
	<g>
		<path class="st2" d="M301.05,215.33c0-3.78,3.09-6.88,6.87-6.88s6.88,3.1,6.88,6.88s-3.1,6.87-6.88,6.87
			S301.05,219.11,301.05,215.33"/>
	</g>
	<g>
		<path class="st3" d="M301.05,215.33c0-3.78,3.09-6.88,6.87-6.88s6.88,3.1,6.88,6.88s-3.1,6.87-6.88,6.87
			S301.05,219.11,301.05,215.33"/>
	</g>
	<g>
		<path class="st2" d="M208.42,205.79c0-3.78,3.09-6.87,6.87-6.87s6.88,3.09,6.88,6.87s-3.1,6.88-6.88,6.88
			S208.42,209.57,208.42,205.79"/>
	</g>
	<g>
		<path class="st3" d="M208.42,205.79c0-3.78,3.09-6.87,6.87-6.87s6.88,3.09,6.88,6.87s-3.1,6.88-6.88,6.88
			S208.42,209.57,208.42,205.79"/>
	</g>
	<g>
		<path class="st4" d="M93.6,166.86c0-3.78,3.09-6.87,6.87-6.87s6.87,3.09,6.87,6.87s-3.09,6.88-6.87,6.88S93.6,170.64,93.6,166.86"
			/>
	</g>
	<g>
		<path class="st3" d="M93.6,166.86c0-3.78,3.09-6.87,6.87-6.87s6.87,3.09,6.87,6.87s-3.09,6.88-6.87,6.88S93.6,170.64,93.6,166.86"
			/>
	</g>
	<g>
		<path class="st4" d="M88.53,129.57c0-3.77,3.1-6.87,6.88-6.87c3.78,0,6.87,3.1,6.87,6.87c0,3.78-3.09,6.88-6.87,6.88
			S88.53,133.35,88.53,129.57"/>
	</g>
	<g>
		<path class="st3" d="M88.53,129.57c0-3.77,3.1-6.87,6.88-6.87c3.78,0,6.87,3.1,6.87,6.87c0,3.78-3.09,6.88-6.87,6.88
			S88.53,133.35,88.53,129.57"/>
	</g>
	<g>
		<path class="st4" d="M87.55,102.61c0-3.78,3.09-6.87,6.87-6.87c3.78,0,6.88,3.09,6.88,6.87c0,3.78-3.1,6.87-6.88,6.87
			S87.55,106.39,87.55,102.61"/>
	</g>
	<g>
		<path class="st3" d="M87.55,102.61c0-3.78,3.09-6.87,6.87-6.87c3.78,0,6.88,3.09,6.88,6.87c0,3.78-3.1,6.87-6.88,6.87
			S87.55,106.39,87.55,102.61"/>
	</g>
	<g>
		<path class="st2" d="M206.07,75.65c0-3.78,3.1-6.88,6.88-6.88c3.77,0,6.87,3.1,6.87,6.88s-3.1,6.87-6.87,6.87
			C209.17,82.52,206.07,79.43,206.07,75.65"/>
	</g>
	<g>
		<path class="st3" d="M206.07,75.65c0-3.78,3.1-6.88,6.88-6.88c3.77,0,6.87,3.1,6.87,6.88s-3.1,6.87-6.87,6.87
			C209.17,82.52,206.07,79.43,206.07,75.65"/>
	</g>
	<g>
		<path class="st2" d="M78.66,76.65c0-3.78,3.1-6.87,6.88-6.87s6.87,3.09,6.87,6.87c0,3.78-3.09,6.87-6.87,6.87
			S78.66,80.43,78.66,76.65"/>
	</g>
	<g>
		<path class="st3" d="M78.66,76.65c0-3.78,3.1-6.87,6.88-6.87s6.87,3.09,6.87,6.87c0,3.78-3.09,6.87-6.87,6.87
			S78.66,80.43,78.66,76.65"/>
	</g>
	<g>
		<path class="st2" d="M179.41,50.69c0-3.78,3.1-6.88,6.88-6.88c3.77,0,6.87,3.1,6.87,6.88c0,3.78-3.1,6.87-6.87,6.87
			C182.51,57.56,179.41,54.47,179.41,50.69"/>
	</g>
	<g>
		<path class="st3" d="M179.41,50.69c0-3.78,3.1-6.88,6.88-6.88c3.77,0,6.87,3.1,6.87,6.88c0,3.78-3.1,6.87-6.87,6.87
			C182.51,57.56,179.41,54.47,179.41,50.69"/>
	</g>
	<g>
		<path class="st2" d="M224.11,42.37c0-3.78,3.1-6.88,6.88-6.88s6.87,3.1,6.87,6.88c0,3.78-3.09,6.87-6.87,6.87
			S224.11,46.15,224.11,42.37"/>
	</g>
	<g>
		<path class="st3" d="M224.11,42.37c0-3.78,3.1-6.88,6.88-6.88s6.87,3.1,6.87,6.88c0,3.78-3.09,6.87-6.87,6.87
			S224.11,46.15,224.11,42.37"/>
	</g>
	<g>
		<path class="st2" d="M195.74,117.25c0-3.78,3.1-6.88,6.88-6.88s6.87,3.1,6.87,6.88s-3.09,6.87-6.87,6.87
			S195.74,121.03,195.74,117.25"/>
	</g>
	<g>
		<path class="st3" d="M195.74,117.25c0-3.78,3.1-6.88,6.88-6.88s6.87,3.1,6.87,6.88s-3.09,6.87-6.87,6.87
			S195.74,121.03,195.74,117.25"/>
	</g>
	<g>
		<path class="st2" d="M243.52,108.93c0-3.78,3.09-6.88,6.87-6.88s6.87,3.1,6.87,6.88s-3.09,6.87-6.87,6.87
			S243.52,112.71,243.52,108.93"/>
	</g>
	<g>
		<path class="st3" d="M243.52,108.93c0-3.78,3.09-6.88,6.87-6.88s6.87,3.1,6.87,6.88s-3.09,6.87-6.87,6.87
			S243.52,112.71,243.52,108.93"/>
	</g>
	<g>
		<path class="st4" d="M210.73,187.94c0-3.78,3.1-6.87,6.88-6.87s6.87,3.09,6.87,6.87s-3.09,6.87-6.87,6.87
			S210.73,191.72,210.73,187.94"/>
	</g>
	<g>
		<path class="st3" d="M210.73,187.94c0-3.78,3.1-6.87,6.88-6.87s6.87,3.09,6.87,6.87s-3.09,6.87-6.87,6.87
			S210.73,191.72,210.73,187.94"/>
	</g>
	<g>
		<path class="st4" d="M220.62,177.19c0-3.78,3.09-6.87,6.87-6.87s6.87,3.09,6.87,6.87s-3.09,6.88-6.87,6.88
			S220.62,180.97,220.62,177.19"/>
	</g>
	<g>
		<path class="st3" d="M220.62,177.19c0-3.78,3.09-6.87,6.87-6.87s6.87,3.09,6.87,6.87s-3.09,6.88-6.87,6.88
			S220.62,180.97,220.62,177.19"/>
	</g>
	<g>
		<path class="st2" d="M304.36,166.79c0-3.78,3.09-6.87,6.87-6.87s6.87,3.09,6.87,6.87s-3.09,6.88-6.87,6.88
			S304.36,170.57,304.36,166.79"/>
	</g>
	<g>
		<path class="st3" d="M304.36,166.79c0-3.78,3.09-6.87,6.87-6.87s6.87,3.09,6.87,6.87s-3.09,6.88-6.87,6.88
			S304.36,170.57,304.36,166.79"/>
	</g>
	<g>
		<path class="st2" d="M324.64,157.09c0-3.78,3.1-6.88,6.87-6.88c3.78,0,6.88,3.1,6.88,6.88s-3.1,6.87-6.88,6.87
			C327.74,163.96,324.64,160.87,324.64,157.09"/>
	</g>
	<g>
		<path class="st3" d="M324.64,157.09c0-3.78,3.1-6.88,6.87-6.88c3.78,0,6.88,3.1,6.88,6.88s-3.1,6.87-6.88,6.87
			C327.74,163.96,324.64,160.87,324.64,157.09"/>
	</g>
	<g>
		<path class="st2" d="M370.32,148.77c0-3.78,3.09-6.88,6.87-6.88s6.87,3.1,6.87,6.88s-3.09,6.87-6.87,6.87
			S370.32,152.55,370.32,148.77"/>
	</g>
	<g>
		<path class="st3" d="M370.32,148.77c0-3.78,3.09-6.88,6.87-6.88s6.87,3.1,6.87,6.88s-3.09,6.87-6.87,6.87
			S370.32,152.55,370.32,148.77"/>
	</g>
</g>
<text transform="matrix(0.967 0.2546 -0.2546 0.967 340.1379 38.6962)" class="st2 st5 st6">Filter </text>
<text transform="matrix(1 0 0 1 299.6341 89.7283)" class="st4 st5 st6 st7"> </text>
<text transform="matrix(0.967 0.2546 -0.2546 0.967 377.9492 99.3204)" class="st4 st5 st6">Zone</text>
</svg>
