<?xml version="1.0" encoding="utf-8"?>
<!-- Generator: Adobe Illustrator 23.0.3, SVG Export Plug-In . SVG Version: 6.00 Build 0)  -->
<svg version="1.1" id="Layer_1" xmlns="http://www.w3.org/2000/svg" xmlns:xlink="http://www.w3.org/1999/xlink" x="0px" y="0px"
	 viewBox="0 0 503.02 249.01" style="enable-background:new 0 0 503.02 249.01;" xml:space="preserve">
<style type="text/css">
	.st0{opacity:0.29;fill:#DE3293;enable-background:new    ;}
	.st1{font-family:'Krungthep';}
	.st2{font-size:44.998px;}
	.st3{fill:none;stroke:#DE3293;stroke-width:2.25;stroke-linecap:round;stroke-linejoin:round;stroke-miterlimit:10;}
	.st4{fill:none;stroke:#7BC143;stroke-width:2.25;stroke-linecap:round;stroke-linejoin:round;stroke-miterlimit:10;}
	.st5{fill:#7BC143;}
	.st6{fill:none;stroke:#000000;stroke-width:0.75;stroke-linecap:round;stroke-linejoin:round;stroke-miterlimit:10;}
	.st7{fill:#DE3293;}
	.st8{fill:#7BC143;stroke:#000000;stroke-miterlimit:10;}
	.st9{fill:#DE3293;stroke:#000000;stroke-miterlimit:10;}
	.st10{opacity:0.29;fill:#7BC143;enable-background:new    ;}
	.st11{opacity:0.45;fill:#7BC143;enable-background:new    ;}
	.st12{opacity:0.48;fill:#DE3293;enable-background:new    ;}
	.st13{opacity:0.48;fill:#7BC143;enable-background:new    ;}
</style>
<text transform="matrix(0.967 0.2546 -0.2546 0.967 122.1775 28.7828)" class="st0 st1 st2">Zone</text>
<line class="st3" x1="38.17" y1="105.97" x2="47.05" y2="105.97"/>
<line class="st3" x1="47.05" y1="132.93" x2="48.04" y2="132.93"/>
<line class="st3" x1="48.04" y1="170.22" x2="53.1" y2="170.22"/>
<line class="st4" x1="53.1" y1="209.84" x2="65.85" y2="209.84"/>
<line class="st4" x1="65.85" y1="209.84" x2="167.92" y2="209.84"/>
<line class="st4" x1="167.92" y1="227.01" x2="208.05" y2="227.01"/>
<line class="st4" x1="208.05" y1="235.33" x2="250.28" y2="235.33"/>
<line class="st4" x1="208.05" y1="218.69" x2="260.55" y2="218.69"/>
<line class="st4" x1="260.55" y1="224.23" x2="302.79" y2="224.23"/>
<line class="st4" x1="260.55" y1="213.14" x2="302.79" y2="213.14"/>
<line class="st3" x1="167.92" y1="191.3" x2="170.24" y2="191.3"/>
<line class="st4" x1="170.24" y1="202.05" x2="212.47" y2="202.05"/>
<line class="st3" x1="170.24" y1="180.55" x2="180.12" y2="180.55"/>
<line class="st4" x1="180.12" y1="190.95" x2="222.35" y2="190.95"/>
<line class="st4" x1="180.12" y1="170.15" x2="263.86" y2="170.15"/>
<line class="st4" x1="263.86" y1="179.86" x2="306.1" y2="179.86"/>
<line class="st4" x1="263.86" y1="160.45" x2="284.14" y2="160.45"/>
<line class="st4" x1="284.14" y1="168.77" x2="326.37" y2="168.77"/>
<line class="st4" x1="284.14" y1="152.13" x2="329.82" y2="152.13"/>
<line class="st4" x1="329.82" y1="157.67" x2="372.06" y2="157.67"/>
<line class="st4" x1="329.82" y1="146.58" x2="372.06" y2="146.58"/>
<line class="st4" x1="53.1" y1="120.61" x2="155.25" y2="120.61"/>
<line class="st4" x1="155.25" y1="128.93" x2="197.48" y2="128.93"/>
<line class="st4" x1="155.25" y1="112.29" x2="203.02" y2="112.29"/>
<line class="st4" x1="203.02" y1="117.83" x2="245.26" y2="117.83"/>
<line class="st4" x1="203.02" y1="106.74" x2="245.26" y2="106.74"/>
<line class="st4" x1="48.04" y1="95.65" x2="90.27" y2="95.65"/>
<line class="st4" x1="47.05" y1="79.01" x2="165.58" y2="79.01"/>
<line class="st4" x1="165.58" y1="84.55" x2="207.81" y2="84.55"/>
<line class="st4" x1="165.58" y1="73.46" x2="207.81" y2="73.46"/>
<line class="st4" x1="38.17" y1="54.05" x2="138.92" y2="54.05"/>
<path class="st4" d="M225.85,51.27"/>
<path class="st4" d="M183.62,51.27"/>
<line class="st4" x1="208.05" y1="235.33" x2="208.05" y2="218.69"/>
<line class="st4" x1="260.55" y1="224.23" x2="260.55" y2="213.14"/>
<line class="st3" x1="167.92" y1="209.15" x2="167.92" y2="191.3"/>
<line class="st4" x1="53.1" y1="209.84" x2="53.1" y2="120.61"/>
<line class="st4" x1="48.04" y1="132.93" x2="48.04" y2="95.65"/>
<line class="st4" x1="47.05" y1="105.97" x2="47.05" y2="79.01"/>
<line class="st4" x1="165.58" y1="84.55" x2="165.58" y2="73.46"/>
<line class="st4" x1="38.17" y1="80.01" x2="38.17" y2="54.05"/>
<line class="st4" x1="155.25" y1="128.93" x2="155.25" y2="112.29"/>
<line class="st4" x1="203.02" y1="117.83" x2="203.02" y2="106.74"/>
<line class="st3" x1="170.24" y1="191.3" x2="170.24" y2="180.55"/>
<line class="st4" x1="180.12" y1="190.95" x2="180.12" y2="170.15"/>
<line class="st4" x1="263.86" y1="179.86" x2="263.86" y2="160.45"/>
<line class="st4" x1="284.14" y1="168.77" x2="284.14" y2="152.12"/>
<line class="st4" x1="329.82" y1="157.67" x2="329.82" y2="146.58"/>
<line class="st4" x1="167.92" y1="227.01" x2="167.92" y2="209.15"/>
<line class="st3" x1="48.04" y1="170.22" x2="48.04" y2="132.93"/>
<line class="st3" x1="47.05" y1="132.93" x2="47.05" y2="105.97"/>
<line class="st3" x1="38.17" y1="105.97" x2="38.17" y2="80.01"/>
<line class="st4" x1="170.24" y1="202.05" x2="170.24" y2="191.3"/>
<g>
	<g>
		<path class="st5" d="M201.18,227.01c0-3.78,3.09-6.88,6.87-6.88c3.78,0,6.87,3.1,6.87,6.88s-3.09,6.87-6.87,6.87
			S201.18,230.79,201.18,227.01"/>
	</g>
	<g>
		<path class="st6" d="M201.18,227.01c0-3.78,3.09-6.88,6.87-6.88c3.78,0,6.87,3.1,6.87,6.88s-3.09,6.87-6.87,6.87
			S201.18,230.79,201.18,227.01"/>
	</g>
	<g>
		<path class="st5" d="M253.68,218.69c0-3.78,3.09-6.88,6.87-6.88s6.88,3.1,6.88,6.88s-3.1,6.87-6.88,6.87
			S253.68,222.47,253.68,218.69"/>
	</g>
	<g>
		<path class="st6" d="M253.68,218.69c0-3.78,3.09-6.88,6.87-6.88s6.88,3.1,6.88,6.88s-3.1,6.87-6.88,6.87
			S253.68,222.47,253.68,218.69"/>
	</g>
	<g>
		<path class="st5" d="M161.05,209.15c0-3.78,3.09-6.87,6.87-6.87s6.88,3.09,6.88,6.87s-3.1,6.88-6.88,6.88
			S161.05,212.93,161.05,209.15"/>
	</g>
	<g>
		<path class="st6" d="M161.05,209.15c0-3.78,3.09-6.87,6.87-6.87s6.88,3.09,6.88,6.87s-3.1,6.88-6.88,6.88
			S161.05,212.93,161.05,209.15"/>
	</g>
	<g>
		<path class="st7" d="M46.23,170.22c0-3.78,3.09-6.87,6.87-6.87s6.87,3.09,6.87,6.87s-3.09,6.88-6.87,6.88S46.23,174,46.23,170.22"
			/>
	</g>
	<g>
		<path class="st6" d="M46.23,170.22c0-3.78,3.09-6.87,6.87-6.87s6.87,3.09,6.87,6.87s-3.09,6.88-6.87,6.88S46.23,174,46.23,170.22"
			/>
	</g>
	<g>
		<path class="st7" d="M41.16,132.93c0-3.77,3.1-6.87,6.88-6.87s6.87,3.1,6.87,6.87c0,3.78-3.09,6.88-6.87,6.88
			S41.16,136.71,41.16,132.93"/>
	</g>
	<g>
		<path class="st6" d="M41.16,132.93c0-3.77,3.1-6.87,6.88-6.87s6.87,3.1,6.87,6.87c0,3.78-3.09,6.88-6.87,6.88
			S41.16,136.71,41.16,132.93"/>
	</g>
	<g>
		<path class="st7" d="M40.18,105.97c0-3.78,3.09-6.87,6.87-6.87c3.78,0,6.88,3.09,6.88,6.87c0,3.78-3.1,6.87-6.88,6.87
			S40.18,109.75,40.18,105.97"/>
	</g>
	<g>
		<path class="st6" d="M40.18,105.97c0-3.78,3.09-6.87,6.87-6.87c3.78,0,6.88,3.09,6.88,6.87c0,3.78-3.1,6.87-6.88,6.87
			S40.18,109.75,40.18,105.97"/>
	</g>
	<g>
		<path class="st5" d="M158.7,79.01c0-3.78,3.1-6.88,6.88-6.88c3.77,0,6.87,3.1,6.87,6.88s-3.1,6.87-6.87,6.87
			C161.8,85.88,158.7,82.79,158.7,79.01"/>
	</g>
	<g>
		<path class="st6" d="M158.7,79.01c0-3.78,3.1-6.88,6.88-6.88c3.77,0,6.87,3.1,6.87,6.88s-3.1,6.87-6.87,6.87
			C161.8,85.88,158.7,82.79,158.7,79.01"/>
	</g>
	<g>
		<path class="st5" d="M31.29,80.01c0-3.78,3.1-6.87,6.88-6.87s6.87,3.09,6.87,6.87c0,3.78-3.09,6.87-6.87,6.87
			S31.29,83.79,31.29,80.01"/>
	</g>
	<g>
		<path class="st6" d="M31.29,80.01c0-3.78,3.1-6.87,6.88-6.87s6.87,3.09,6.87,6.87c0,3.78-3.09,6.87-6.87,6.87
			S31.29,83.79,31.29,80.01"/>
	</g>
	<g>
		<path class="st5" d="M148.37,120.61c0-3.78,3.1-6.88,6.88-6.88s6.87,3.1,6.87,6.88s-3.09,6.87-6.87,6.87
			S148.37,124.39,148.37,120.61"/>
	</g>
	<g>
		<path class="st6" d="M148.37,120.61c0-3.78,3.1-6.88,6.88-6.88s6.87,3.1,6.87,6.88s-3.09,6.87-6.87,6.87
			S148.37,124.39,148.37,120.61"/>
	</g>
	<g>
		<path class="st5" d="M196.15,112.29c0-3.78,3.09-6.88,6.87-6.88s6.87,3.1,6.87,6.88s-3.09,6.87-6.87,6.87
			S196.15,116.07,196.15,112.29"/>
	</g>
	<g>
		<path class="st6" d="M196.15,112.29c0-3.78,3.09-6.88,6.87-6.88s6.87,3.1,6.87,6.88s-3.09,6.87-6.87,6.87
			S196.15,116.07,196.15,112.29"/>
	</g>
	<g>
		<path class="st7" d="M163.36,191.3c0-3.78,3.1-6.87,6.88-6.87s6.87,3.09,6.87,6.87s-3.09,6.87-6.87,6.87
			S163.36,195.08,163.36,191.3"/>
	</g>
	<g>
		<path class="st6" d="M163.36,191.3c0-3.78,3.1-6.87,6.88-6.87s6.87,3.09,6.87,6.87s-3.09,6.87-6.87,6.87
			S163.36,195.08,163.36,191.3"/>
	</g>
	<g>
		<path class="st7" d="M173.25,180.55c0-3.78,3.09-6.87,6.87-6.87s6.87,3.09,6.87,6.87s-3.09,6.88-6.87,6.88
			S173.25,184.33,173.25,180.55"/>
	</g>
	<g>
		<path class="st6" d="M173.25,180.55c0-3.78,3.09-6.87,6.87-6.87s6.87,3.09,6.87,6.87s-3.09,6.88-6.87,6.88
			S173.25,184.33,173.25,180.55"/>
	</g>
	<g>
		<path class="st5" d="M256.99,170.15c0-3.78,3.09-6.87,6.87-6.87s6.87,3.09,6.87,6.87s-3.09,6.88-6.87,6.88
			S256.99,173.93,256.99,170.15"/>
	</g>
	<g>
		<path class="st6" d="M256.99,170.15c0-3.78,3.09-6.87,6.87-6.87s6.87,3.09,6.87,6.87s-3.09,6.88-6.87,6.88
			S256.99,173.93,256.99,170.15"/>
	</g>
	<g>
		<path class="st5" d="M277.27,160.45c0-3.78,3.1-6.88,6.87-6.88c3.78,0,6.88,3.1,6.88,6.88s-3.1,6.87-6.88,6.87
			C280.37,167.32,277.27,164.23,277.27,160.45"/>
	</g>
	<g>
		<path class="st6" d="M277.27,160.45c0-3.78,3.1-6.88,6.87-6.88c3.78,0,6.88,3.1,6.88,6.88s-3.1,6.87-6.88,6.87
			C280.37,167.32,277.27,164.23,277.27,160.45"/>
	</g>
	<g>
		<path class="st5" d="M322.95,152.13c0-3.78,3.09-6.88,6.87-6.88s6.87,3.1,6.87,6.88s-3.09,6.87-6.87,6.87
			S322.95,155.91,322.95,152.13"/>
	</g>
	<g>
		<path class="st6" d="M322.95,152.13c0-3.78,3.09-6.88,6.87-6.88s6.87,3.1,6.87,6.88s-3.09,6.87-6.87,6.87
			S322.95,155.91,322.95,152.13"/>
	</g>
</g>
<text transform="matrix(0.967 0.2546 -0.2546 0.967 364.0796 49.2212)" class="st8 st1 st2">Filter </text>
<text transform="matrix(0.967 0.2546 -0.2546 0.967 374.8057 101.0343)" class="st9 st1 st2">Zone</text>
<text transform="matrix(0.967 0.2546 -0.2546 0.967 293.3019 30.3028)" class="st10 st1 st2">Filter </text>
<text transform="matrix(0.967 0.2546 -0.2546 0.967 350.942 59.6244)" class="st11 st1 st2">Filter </text>
<text transform="matrix(0.967 0.2546 -0.2546 0.967 219.6819 -0.8713)" class="st10 st1 st2">Filter </text>
<text transform="matrix(0.967 0.2546 -0.2546 0.967 113.9219 -24.4301)" class="st10 st1 st2">Filter </text>
<text transform="matrix(0.967 0.2546 -0.2546 0.967 188.1969 -0.8714)" class="st10 st1 st2">Filter </text>
<text transform="matrix(0.967 0.2546 -0.2546 0.967 244.5619 14.0132)" class="st10 st1 st2">Filter </text>
<text transform="matrix(0.967 0.2546 -0.2546 0.967 287.182 74.1944)" class="st0 st1 st2">Zone</text>
<text transform="matrix(0.967 0.2546 -0.2546 0.967 230.4722 59.6244)" class="st0 st1 st2">Zone</text>
<text transform="matrix(0.967 0.2546 -0.2546 0.967 263.2622 69.3981)" class="st0 st1 st2">Zone</text>
<text transform="matrix(0.967 0.2546 -0.2546 0.967 150.1775 32.7828)" class="st0 st1 st2">Zone</text>
<text transform="matrix(0.967 0.2546 -0.2546 0.967 101.3392 28.7822)" class="st12 st1 st2">Zone</text>
<text transform="matrix(0.967 0.2546 -0.2546 0.967 224.1417 69.3978)" class="st0 st1 st2">Zone</text>
<text transform="matrix(0.967 0.2546 -0.2546 0.967 344.2003 39.8007)" class="st13 st1 st2">Filter </text>
<text transform="matrix(0.967 0.2546 -0.2546 0.967 341.168 105.4143)" class="st12 st1 st2">Zone</text>
<text transform="matrix(0.967 0.2546 -0.2546 0.967 122.1777 14.0129)" class="st12 st1 st2">Zone</text>
<text transform="matrix(0.967 0.2546 -0.2546 0.967 239.3974 25.8436)" class="st10 st1 st2">Filter </text>
<text transform="matrix(0.967 0.2546 -0.2546 0.967 138.9217 -3.8554)" class="st10 st1 st2">Filter </text>
<text transform="matrix(0.967 0.2546 -0.2546 0.967 293.3022 2.4908)" class="st10 st1 st2">Filter </text>
</svg>
